<?xml version="1.0" standalone="no"?>
<!DOCTYPE svg PUBLIC "-//W3C//DTD SVG 20010904//EN"
 "http://www.w3.org/TR/2001/REC-SVG-20010904/DTD/svg10.dtd">
<svg version="1.0" xmlns="http://www.w3.org/2000/svg"
 width="144.000000pt" height="144.000000pt" viewBox="0 0 144.000000 144.000000"
 preserveAspectRatio="xMidYMid meet">
<metadata>
Created by potrace 1.11, written by Peter Selinger 2001-2013
</metadata>
<g transform="translate(0.000000,144.000000) scale(0.100000,-0.100000)"
fill="#000000" stroke="none">
<path d="M650 1337 c-14 -7 -44 -25 -67 -40 -24 -15 -44 -27 -47 -27 -2 0 -33
-18 -67 -40 -35 -22 -71 -43 -79 -47 -64 -28 -177 -103 -198 -132 l-27 -34 -1
-271 c-2 -283 3 -321 44 -352 9 -7 69 -43 132 -80 63 -36 137 -79 163 -95 27
-16 52 -29 57 -29 5 0 10 -3 12 -7 6 -16 107 -63 132 -63 35 0 79 19 168 73
40 24 93 54 118 67 25 14 52 30 60 36 8 7 42 27 75 44 33 18 71 42 83 54 45
40 48 65 46 341 -1 143 -2 268 -3 277 -2 24 -51 79 -86 95 -16 7 -50 27 -75
43 -25 16 -52 33 -60 37 -8 4 -37 20 -65 36 -223 132 -257 144 -315 114z m103
-18 c20 -7 37 -16 37 -21 0 -4 4 -8 10 -8 5 0 31 -13 58 -29 27 -16 76 -44
108 -62 33 -17 61 -35 64 -38 5 -6 47 -31 115 -66 22 -12 50 -36 62 -54 21
-31 22 -41 21 -299 0 -168 -4 -274 -11 -287 -12 -24 -49 -65 -59 -65 -4 0 -31
-14 -60 -31 -62 -37 -105 -62 -168 -97 -25 -14 -57 -33 -72 -43 -14 -11 -31
-19 -37 -19 -6 0 -11 -5 -11 -12 0 -6 -3 -8 -7 -5 -3 4 -14 0 -23 -8 -10 -9
-33 -18 -53 -22 -38 -6 -25 -12 -282 136 -149 85 -150 85 -156 94 -3 5 -8 7
-10 6 -2 -2 -16 5 -31 15 -52 34 -55 50 -54 342 1 314 -4 298 114 365 37 22
74 43 82 48 8 6 34 19 56 31 23 11 52 30 64 40 13 11 28 20 34 20 6 0 37 17
68 38 64 42 87 47 141 31z"/>
<path d="M670 1281 c-19 -10 -59 -33 -88 -50 -29 -17 -57 -31 -62 -31 -6 0
-10 -4 -10 -10 0 -5 -4 -10 -9 -10 -13 0 -179 -97 -197 -115 -32 -32 -14 -64
66 -113 62 -38 85 -47 135 -50 55 -4 67 0 140 38 44 24 83 47 86 52 3 5 9 9
13 8 3 0 34 16 68 35 73 43 81 44 132 20 l39 -19 -28 -22 c-16 -12 -46 -31
-67 -41 -21 -10 -38 -21 -38 -25 0 -5 -4 -8 -9 -8 -5 0 -48 -22 -96 -50 -48
-27 -89 -50 -92 -50 -7 0 -36 -31 -32 -34 2 -2 23 -13 47 -25 l42 -22 73 43
c68 40 145 83 267 151 73 40 93 73 66 110 -8 10 -48 35 -90 57 -60 31 -88 40
-127 40 -56 0 -73 -7 -239 -102 -63 -36 -122 -67 -130 -70 -17 -6 -90 29 -90
43 0 5 11 15 25 21 14 6 25 15 25 20 0 4 5 8 10 8 13 0 193 101 201 113 3 5
10 9 15 8 15 0 74 38 74 48 0 7 -71 51 -83 51 -1 0 -18 -8 -37 -19z"/>
<path d="M1075 938 c-60 -38 -119 -73 -130 -78 -11 -6 -29 -16 -39 -22 -11 -7
-44 -28 -73 -46 -34 -21 -62 -48 -79 -78 -25 -42 -27 -57 -28 -146 -1 -88 1
-101 18 -114 11 -8 27 -14 37 -14 9 0 78 36 152 80 166 98 163 97 169 68 8
-43 -10 -83 -46 -104 -19 -10 -81 -46 -137 -79 -56 -33 -113 -67 -128 -75 -61
-35 -67 -43 -67 -92 0 -39 4 -48 18 -48 10 0 18 5 18 11 0 5 5 7 10 4 6 -3 10
-1 10 4 0 6 5 11 11 11 6 0 30 14 54 30 24 17 46 30 48 30 7 0 174 97 217 126
33 22 70 71 78 104 8 32 9 186 1 207 -19 51 -58 39 -254 -77 -55 -32 -103 -56
-107 -54 -16 10 -8 81 10 96 16 14 262 164 327 199 25 14 30 23 32 60 1 24 -1
48 -5 54 -5 7 -47 -14 -117 -57z"/>
<path d="M230 945 c-10 -13 -14 -43 -14 -109 2 -132 29 -180 134 -238 25 -14
63 -36 85 -48 22 -13 56 -32 75 -42 64 -35 80 -52 83 -88 6 -61 -7 -63 -89
-14 -41 24 -79 44 -84 44 -6 0 -10 5 -10 10 0 6 -4 10 -10 10 -5 0 -38 17 -72
38 -105 64 -112 64 -113 6 -2 -49 5 -57 86 -102 76 -42 84 -47 89 -52 3 -3 16
-11 29 -18 13 -8 39 -22 57 -33 19 -10 51 -28 72 -40 20 -11 41 -25 47 -30 5
-5 21 -9 37 -9 44 0 58 33 57 131 -1 46 -5 89 -8 94 -3 6 -6 12 -6 15 -3 20
-39 70 -65 90 -35 27 -169 104 -212 123 -16 6 -28 15 -28 19 0 4 -6 8 -14 8
-23 0 -40 29 -41 71 -1 22 1 42 5 44 4 2 37 -14 74 -35 38 -22 69 -40 71 -40
1 0 51 -29 111 -65 l109 -66 3 51 c2 32 -2 55 -10 63 -11 10 -80 51 -212 127
-17 9 -59 34 -94 54 -76 45 -122 55 -142 31z"/>
</g>
</svg>
